<svg width="21" height="21" viewBox="0 0 21 21" fill="none" xmlns="http://www.w3.org/2000/svg">
<g clip-path="url(#clip0_4_129)">
<path d="M10.8822 0.682983C5.36023 0.682983 0.882233 5.15998 0.882233 10.683C0.882233 14.92 3.51823 18.538 7.23823 19.995C7.15023 19.204 7.07123 17.99 7.27323 17.127C7.45523 16.347 8.44523 12.157 8.44523 12.157C8.44523 12.157 8.14623 11.557 8.14623 10.671C8.14623 9.28098 8.95223 8.24298 9.95623 8.24298C10.8082 8.24298 11.2202 8.88298 11.2202 9.65098C11.2202 10.509 10.6752 11.791 10.3922 12.981C10.1562 13.976 10.8922 14.788 11.8722 14.788C13.6502 14.788 15.0162 12.914 15.0162 10.208C15.0162 7.81498 13.2962 6.13998 10.8392 6.13998C7.99423 6.13998 6.32423 8.27498 6.32423 10.48C6.32423 11.339 6.65523 12.261 7.06923 12.761C7.10467 12.7989 7.12965 12.8454 7.14175 12.8959C7.15384 12.9464 7.15263 12.9991 7.13823 13.049L6.86023 14.182C6.81623 14.365 6.71523 14.405 6.52523 14.316C5.27623 13.735 4.49523 11.909 4.49523 10.442C4.49523 7.28798 6.78723 4.38998 11.1032 4.38998C14.5722 4.38998 17.2682 6.86298 17.2682 10.166C17.2682 13.613 15.0952 16.386 12.0782 16.386C11.0652 16.386 10.1132 15.861 9.78723 15.238L9.16423 17.616C8.93823 18.485 8.32923 19.574 7.92023 20.237C8.85723 20.527 9.85123 20.683 10.8822 20.683C16.4042 20.683 20.8822 16.206 20.8822 10.683C20.8822 5.15998 16.4042 0.682983 10.8822 0.682983Z" fill="white"/>
</g>
<defs>
<clipPath id="clip0_4_129">
<rect width="20" height="20" fill="white" transform="translate(0.882233 0.682983)"/>
</clipPath>
</defs>
</svg>
