<svg width="155" height="23" viewBox="0 0 155 23" fill="none" xmlns="http://www.w3.org/2000/svg">
<g clip-path="url(#clip0_4_123)">
<path d="M19.7772 0.682983H1.98523C1.37523 0.682983 0.881226 1.17698 0.881226 1.78698V19.58C0.881226 20.189 1.37523 20.683 1.98523 20.683H11.5652V12.938H8.95723V9.91998H11.5632V7.69298C11.5632 5.10998 13.1412 3.70298 15.4462 3.70298C16.5502 3.70298 17.4982 3.78498 17.7752 3.82198V6.52198H16.1772C14.9232 6.52198 14.6812 7.11898 14.6812 7.99198V9.91998H17.6702L17.2802 12.938H14.6802V20.683H19.7782C20.3862 20.683 20.8802 20.189 20.8802 19.579V1.78698C20.8812 1.17698 20.3872 0.682983 19.7772 0.682983Z" fill="white"/>
</g>
<g clip-path="url(#clip1_4_123)">
<path d="M44.2142 0.682983C38.6922 0.682983 34.2142 5.16098 34.2142 10.683C34.2142 16.206 38.6922 20.683 44.2142 20.683C49.7372 20.683 54.2142 16.206 54.2142 10.683C54.2142 5.16098 49.7372 0.682983 44.2142 0.682983ZM47.9152 14.76C46.1632 14.88 42.2622 14.88 40.5132 14.76C38.6162 14.63 38.3952 13.701 38.3812 10.683C38.3952 7.65898 38.6182 6.73598 40.5132 6.60598C42.2622 6.48598 46.1642 6.48598 47.9152 6.60598C49.8132 6.73598 50.0332 7.66498 50.0482 10.683C50.0332 13.707 49.8102 14.63 47.9152 14.76ZM42.5482 8.73098L46.6452 10.68L42.5482 12.635V8.73098Z" fill="white"/>
</g>
<path d="M87.8822 2.60699C87.1333 2.93896 86.3388 3.15672 85.5252 3.25299C86.3824 2.74061 87.0236 1.93369 87.3292 0.982987C86.5237 1.46105 85.6423 1.7979 84.7232 1.97899C84.3395 1.56925 83.8756 1.24278 83.3604 1.01984C82.8452 0.796892 82.2896 0.682236 81.7282 0.682987C79.0792 0.682987 77.1332 3.15499 77.7312 5.72099C76.0998 5.63935 74.5038 5.21549 73.0468 4.47692C71.5898 3.73836 70.3045 2.7016 69.2742 1.43399C68.75 2.33746 68.5895 3.40669 68.8254 4.42426C69.0613 5.44183 69.6759 6.33136 70.5442 6.91199C69.8926 6.89207 69.2552 6.71652 68.6852 6.39999C68.6402 8.30099 70.0022 10.08 71.9752 10.475C71.3709 10.6391 70.7372 10.663 70.1222 10.545C70.3841 11.3606 70.8946 12.0739 71.5821 12.585C72.2696 13.096 73.0997 13.3793 73.9562 13.395C72.2364 14.7441 70.0515 15.3555 67.8812 15.095C69.7575 16.3004 71.9411 16.9402 74.1712 16.938C81.7892 16.938 86.0932 10.504 85.8332 4.73299C86.6365 4.1521 87.33 3.43289 87.8812 2.60899L87.8822 2.60699Z" fill="white"/>
<g clip-path="url(#clip2_4_123)">
<path d="M110.882 0.682983C105.36 0.682983 100.882 5.15998 100.882 10.683C100.882 14.92 103.518 18.538 107.238 19.995C107.15 19.204 107.071 17.99 107.273 17.127C107.455 16.347 108.445 12.157 108.445 12.157C108.445 12.157 108.146 11.557 108.146 10.671C108.146 9.28098 108.952 8.24298 109.956 8.24298C110.808 8.24298 111.22 8.88298 111.22 9.65098C111.22 10.509 110.675 11.791 110.392 12.981C110.156 13.976 110.892 14.788 111.872 14.788C113.65 14.788 115.016 12.914 115.016 10.208C115.016 7.81498 113.296 6.13998 110.839 6.13998C107.994 6.13998 106.324 8.27498 106.324 10.48C106.324 11.339 106.655 12.261 107.069 12.761C107.105 12.7989 107.13 12.8454 107.142 12.8959C107.154 12.9464 107.153 12.9991 107.138 13.049L106.86 14.182C106.816 14.365 106.715 14.405 106.525 14.316C105.276 13.735 104.495 11.909 104.495 10.442C104.495 7.28798 106.787 4.38998 111.103 4.38998C114.572 4.38998 117.268 6.86298 117.268 10.166C117.268 13.613 115.095 16.386 112.078 16.386C111.065 16.386 110.113 15.861 109.787 15.238L109.164 17.616C108.938 18.485 108.329 19.574 107.92 20.237C108.857 20.527 109.851 20.683 110.882 20.683C116.404 20.683 120.882 16.206 120.882 10.683C120.882 5.15998 116.404 0.682983 110.882 0.682983Z" fill="white"/>
</g>
<g clip-path="url(#clip3_4_123)">
<path d="M144.215 2.48498C146.885 2.48498 147.202 2.49498 148.257 2.54398C150.967 2.66698 152.233 3.95298 152.357 6.64298C152.405 7.69698 152.414 8.01298 152.414 10.683C152.414 13.355 152.404 13.671 152.356 14.725C152.232 17.412 150.97 18.7 148.257 18.824C147.202 18.872 146.887 18.882 144.215 18.882C141.545 18.882 141.229 18.872 140.175 18.824C137.458 18.7 136.199 17.408 136.075 14.724C136.027 13.67 136.017 13.354 136.017 10.683C136.017 8.01298 136.027 7.69698 136.075 6.64298C136.199 3.95298 137.462 2.66598 140.175 2.54298C141.229 2.49498 141.545 2.48498 144.215 2.48498ZM144.215 0.682983C141.5 0.682983 141.16 0.694983 140.093 0.742983C136.461 0.909983 134.442 2.92498 134.276 6.55998C134.227 7.62698 134.216 7.96698 134.216 10.683C134.216 13.399 134.227 13.74 134.276 14.806C134.442 18.438 136.457 20.456 140.092 20.623C141.16 20.671 141.5 20.683 144.215 20.683C146.931 20.683 147.272 20.671 148.339 20.623C151.967 20.456 153.99 18.441 154.155 14.806C154.204 13.74 154.215 13.399 154.215 10.683C154.215 7.96698 154.204 7.62698 154.155 6.56098C153.992 2.93198 151.975 0.910983 148.34 0.742983C147.272 0.692983 146.931 0.682983 144.215 0.682983ZM144.215 5.54798C142.853 5.54798 141.547 6.08899 140.584 7.05199C139.621 8.01499 139.08 9.3211 139.08 10.683C139.08 12.0449 139.621 13.351 140.584 14.314C141.547 15.277 142.853 15.818 144.215 15.818C145.577 15.818 146.883 15.277 147.846 14.314C148.809 13.351 149.35 12.0449 149.35 10.683C149.35 9.3211 148.809 8.01499 147.846 7.05199C146.883 6.08899 145.577 5.54798 144.215 5.54798ZM144.215 14.016C143.331 14.016 142.484 13.6648 141.858 13.0398C141.233 12.4147 140.882 11.5669 140.882 10.683C140.882 9.79902 141.233 8.95126 141.858 8.3262C142.484 7.70114 143.331 7.34998 144.215 7.34998C145.099 7.34998 145.947 7.70114 146.572 8.3262C147.197 8.95126 147.548 9.79902 147.548 10.683C147.548 11.5669 147.197 12.4147 146.572 13.0398C145.947 13.6648 145.099 14.016 144.215 14.016ZM149.554 4.14598C149.397 4.14592 149.241 4.17689 149.095 4.23714C148.949 4.29738 148.817 4.38572 148.706 4.4971C148.594 4.60849 148.506 4.74074 148.445 4.8863C148.385 5.03187 148.354 5.1879 148.354 5.34548C148.354 5.50307 148.385 5.65913 148.445 5.80474C148.505 5.95036 148.593 6.08268 148.705 6.19416C148.816 6.30563 148.948 6.39408 149.094 6.45445C149.24 6.51481 149.396 6.54592 149.553 6.54598C149.872 6.54598 150.177 6.41956 150.402 6.19451C150.627 5.96947 150.753 5.66424 150.753 5.34598C150.753 5.02772 150.627 4.7225 150.402 4.49746C150.177 4.27241 149.872 4.14598 149.553 4.14598H149.554Z" fill="white"/>
</g>
<defs>
<clipPath id="clip0_4_123">
<rect width="20" height="20" fill="white" transform="translate(0.881226 0.682983)"/>
</clipPath>
<clipPath id="clip1_4_123">
<rect width="21" height="20" fill="white" transform="translate(33.8812 0.682983)"/>
</clipPath>
<clipPath id="clip2_4_123">
<rect width="20" height="20" fill="white" transform="translate(100.882 0.682983)"/>
</clipPath>
<clipPath id="clip3_4_123">
<rect width="21" height="20" fill="white" transform="translate(133.882 0.682983)"/>
</clipPath>
</defs>
</svg>
