<svg width="21" height="21" viewBox="0 0 21 21" fill="none" xmlns="http://www.w3.org/2000/svg">
<path d="M10.2142 0.682983C4.69223 0.682983 0.214233 5.16098 0.214233 10.683C0.214233 16.206 4.69223 20.683 10.2142 20.683C15.7372 20.683 20.2142 16.206 20.2142 10.683C20.2142 5.16098 15.7372 0.682983 10.2142 0.682983V0.682983ZM13.9152 14.76C12.1632 14.88 8.26223 14.88 6.51323 14.76C4.61623 14.63 4.39523 13.701 4.38123 10.683C4.39523 7.65898 4.61823 6.73598 6.51323 6.60598C8.26223 6.48598 12.1642 6.48598 13.9152 6.60598C15.8132 6.73598 16.0332 7.66498 16.0482 10.683C16.0332 13.707 15.8102 14.63 13.9152 14.76V14.76ZM8.54823 8.73098L12.6452 10.68L8.54823 12.635V8.73098V8.73098Z" fill="white"/>
</svg>
